<mxfile host="app.diagrams.net" modified="2023-06-23T16:32:52.150Z" agent="Mozilla/5.0 (Windows NT 10.0; Win64; x64) AppleWebKit/537.36 (KHTML, like Gecko) Chrome/114.0.0.0 Safari/537.36" etag="201zpUrL3Ck1czPX9NZ3" version="21.5.0" type="github">
  <diagram name="第 1 页" id="ue9a35BSr0YPDDQFmYLG">
    <mxGraphModel dx="1052" dy="642" grid="1" gridSize="10" guides="1" tooltips="1" connect="1" arrows="1" fold="1" page="1" pageScale="1" pageWidth="827" pageHeight="1169" math="1" shadow="0">
      <root>
        <mxCell id="0" />
        <mxCell id="1" parent="0" />
        <mxCell id="DjB0LLJIEOoe7MBfoNfe-7" value="" style="edgeStyle=orthogonalEdgeStyle;rounded=0;orthogonalLoop=1;jettySize=auto;html=1;" edge="1" parent="1" source="DjB0LLJIEOoe7MBfoNfe-1" target="DjB0LLJIEOoe7MBfoNfe-6">
          <mxGeometry relative="1" as="geometry" />
        </mxCell>
        <mxCell id="DjB0LLJIEOoe7MBfoNfe-1" value="$$S_{cps1}$$" style="text;html=1;strokeColor=none;fillColor=none;align=center;verticalAlign=middle;whiteSpace=wrap;rounded=0;fontSize=14;" vertex="1" parent="1">
          <mxGeometry x="180" y="140" width="40" height="30" as="geometry" />
        </mxCell>
        <mxCell id="DjB0LLJIEOoe7MBfoNfe-9" value="" style="edgeStyle=orthogonalEdgeStyle;rounded=0;orthogonalLoop=1;jettySize=auto;html=1;" edge="1" parent="1" source="DjB0LLJIEOoe7MBfoNfe-2" target="DjB0LLJIEOoe7MBfoNfe-8">
          <mxGeometry relative="1" as="geometry" />
        </mxCell>
        <mxCell id="DjB0LLJIEOoe7MBfoNfe-2" value="$$S_{ssa1}$$" style="text;html=1;strokeColor=none;fillColor=none;align=center;verticalAlign=middle;whiteSpace=wrap;rounded=0;fontSize=14;" vertex="1" parent="1">
          <mxGeometry x="180" y="230" width="40" height="30" as="geometry" />
        </mxCell>
        <mxCell id="DjB0LLJIEOoe7MBfoNfe-4" value="" style="endArrow=none;html=1;rounded=0;dashed=1;" edge="1" parent="1" source="DjB0LLJIEOoe7MBfoNfe-2" target="DjB0LLJIEOoe7MBfoNfe-1">
          <mxGeometry width="50" height="50" relative="1" as="geometry">
            <mxPoint x="390" y="360" as="sourcePoint" />
            <mxPoint x="440" y="310" as="targetPoint" />
          </mxGeometry>
        </mxCell>
        <mxCell id="DjB0LLJIEOoe7MBfoNfe-5" value="$$\sim$$" style="text;html=1;strokeColor=none;fillColor=none;align=center;verticalAlign=middle;whiteSpace=wrap;rounded=0;fontSize=14;" vertex="1" parent="1">
          <mxGeometry x="170" y="190" width="40" height="20" as="geometry" />
        </mxCell>
        <mxCell id="DjB0LLJIEOoe7MBfoNfe-14" value="" style="edgeStyle=orthogonalEdgeStyle;rounded=0;orthogonalLoop=1;jettySize=auto;html=1;" edge="1" parent="1" source="DjB0LLJIEOoe7MBfoNfe-6" target="DjB0LLJIEOoe7MBfoNfe-13">
          <mxGeometry relative="1" as="geometry" />
        </mxCell>
        <mxCell id="DjB0LLJIEOoe7MBfoNfe-6" value="$$S_{cps2}$$" style="text;html=1;strokeColor=none;fillColor=none;align=center;verticalAlign=middle;whiteSpace=wrap;rounded=0;fontSize=14;" vertex="1" parent="1">
          <mxGeometry x="280" y="140" width="40" height="30" as="geometry" />
        </mxCell>
        <mxCell id="DjB0LLJIEOoe7MBfoNfe-18" value="" style="edgeStyle=orthogonalEdgeStyle;rounded=0;orthogonalLoop=1;jettySize=auto;html=1;" edge="1" parent="1" source="DjB0LLJIEOoe7MBfoNfe-8" target="DjB0LLJIEOoe7MBfoNfe-17">
          <mxGeometry relative="1" as="geometry" />
        </mxCell>
        <mxCell id="DjB0LLJIEOoe7MBfoNfe-8" value="$$S_{ssa2}$$" style="text;html=1;strokeColor=none;fillColor=none;align=center;verticalAlign=middle;whiteSpace=wrap;rounded=0;fontSize=14;" vertex="1" parent="1">
          <mxGeometry x="280" y="230" width="40" height="30" as="geometry" />
        </mxCell>
        <mxCell id="DjB0LLJIEOoe7MBfoNfe-10" value="" style="endArrow=none;html=1;rounded=0;dashed=1;" edge="1" parent="1">
          <mxGeometry width="50" height="50" relative="1" as="geometry">
            <mxPoint x="299.5" y="230" as="sourcePoint" />
            <mxPoint x="299.5" y="170" as="targetPoint" />
          </mxGeometry>
        </mxCell>
        <mxCell id="DjB0LLJIEOoe7MBfoNfe-11" value="$$\sim$$" style="text;html=1;strokeColor=none;fillColor=none;align=center;verticalAlign=middle;whiteSpace=wrap;rounded=0;fontSize=14;" vertex="1" parent="1">
          <mxGeometry x="270" y="190" width="40" height="20" as="geometry" />
        </mxCell>
        <mxCell id="DjB0LLJIEOoe7MBfoNfe-12" value="$$*$$" style="text;html=1;strokeColor=none;fillColor=none;align=center;verticalAlign=middle;whiteSpace=wrap;rounded=0;fontSize=14;" vertex="1" parent="1">
          <mxGeometry x="230" y="220" width="40" height="20" as="geometry" />
        </mxCell>
        <mxCell id="DjB0LLJIEOoe7MBfoNfe-16" value="" style="edgeStyle=orthogonalEdgeStyle;rounded=0;orthogonalLoop=1;jettySize=auto;html=1;" edge="1" parent="1" source="DjB0LLJIEOoe7MBfoNfe-13" target="DjB0LLJIEOoe7MBfoNfe-15">
          <mxGeometry relative="1" as="geometry" />
        </mxCell>
        <mxCell id="DjB0LLJIEOoe7MBfoNfe-13" value="..." style="text;html=1;strokeColor=none;fillColor=none;align=center;verticalAlign=middle;whiteSpace=wrap;rounded=0;fontSize=14;" vertex="1" parent="1">
          <mxGeometry x="373.5" y="140" width="40" height="30" as="geometry" />
        </mxCell>
        <mxCell id="DjB0LLJIEOoe7MBfoNfe-15" value="$$S_{cpsn}$$" style="text;html=1;strokeColor=none;fillColor=none;align=center;verticalAlign=middle;whiteSpace=wrap;rounded=0;fontSize=14;" vertex="1" parent="1">
          <mxGeometry x="470" y="140" width="40" height="30" as="geometry" />
        </mxCell>
        <mxCell id="DjB0LLJIEOoe7MBfoNfe-20" value="" style="edgeStyle=orthogonalEdgeStyle;rounded=0;orthogonalLoop=1;jettySize=auto;html=1;" edge="1" parent="1" source="DjB0LLJIEOoe7MBfoNfe-17" target="DjB0LLJIEOoe7MBfoNfe-19">
          <mxGeometry relative="1" as="geometry" />
        </mxCell>
        <mxCell id="DjB0LLJIEOoe7MBfoNfe-17" value="..." style="text;html=1;strokeColor=none;fillColor=none;align=center;verticalAlign=middle;whiteSpace=wrap;rounded=0;fontSize=14;" vertex="1" parent="1">
          <mxGeometry x="374" y="230" width="40" height="30" as="geometry" />
        </mxCell>
        <mxCell id="DjB0LLJIEOoe7MBfoNfe-19" value="$$S_{ssan}$$" style="text;html=1;strokeColor=none;fillColor=none;align=center;verticalAlign=middle;whiteSpace=wrap;rounded=0;fontSize=14;" vertex="1" parent="1">
          <mxGeometry x="470" y="230" width="40" height="30" as="geometry" />
        </mxCell>
        <mxCell id="DjB0LLJIEOoe7MBfoNfe-21" value="" style="endArrow=none;html=1;rounded=0;dashed=1;" edge="1" parent="1">
          <mxGeometry width="50" height="50" relative="1" as="geometry">
            <mxPoint x="489.5" y="230" as="sourcePoint" />
            <mxPoint x="489.5" y="170" as="targetPoint" />
          </mxGeometry>
        </mxCell>
        <mxCell id="DjB0LLJIEOoe7MBfoNfe-22" value="$$\sim$$" style="text;html=1;strokeColor=none;fillColor=none;align=center;verticalAlign=middle;whiteSpace=wrap;rounded=0;fontSize=14;" vertex="1" parent="1">
          <mxGeometry x="454" y="190" width="40" height="20" as="geometry" />
        </mxCell>
        <mxCell id="DjB0LLJIEOoe7MBfoNfe-24" value="$$*$$" style="text;html=1;strokeColor=none;fillColor=none;align=center;verticalAlign=middle;whiteSpace=wrap;rounded=0;fontSize=14;" vertex="1" parent="1">
          <mxGeometry x="320" y="220" width="40" height="20" as="geometry" />
        </mxCell>
        <mxCell id="DjB0LLJIEOoe7MBfoNfe-25" value="$$*$$" style="text;html=1;strokeColor=none;fillColor=none;align=center;verticalAlign=middle;whiteSpace=wrap;rounded=0;fontSize=14;" vertex="1" parent="1">
          <mxGeometry x="420" y="220" width="40" height="20" as="geometry" />
        </mxCell>
      </root>
    </mxGraphModel>
  </diagram>
</mxfile>
